PathFileType	4	(X/Y/Z)	s11c0001.trc
DataRate	CameraRate	NumFrames	NumMarkers	Units	OrigDataRate	OrigDataStartFrame	OrigNumFrames
200	200	5	49	mm	200	0	2000
Frame#	Time	racr			lacr			c7			jug			rlel			rdr			llel			ldr			s2			lic			ric			lasi			rasi			rpsi			lpsi			rgt			lgt			rth1			rth2			rth3			rth4			rlfc			rmfc			rsh1			rsh2			rsh3			rsh4			rlmal			rmmal			rcal			rtoe			rmt5			rmt1			lth1			lth2			lth4			lth3			llfc			lmfc			llmal			lmmal			lcal			lmt1			lmt5			lsh1			lsh2			lsh3			lsh4			ltoe			
		X1	Y1	Z1	X2	Y2	Z2	X3	Y3	Z3	X4	Y4	Z4	X5	Y5	Z5	X6	Y6	Z6	X7	Y7	Z7	X8	Y8	Z8	X9	Y9	Z9	X10	Y10	Z10	X11	Y11	Z11	X12	Y12	Z12	X13	Y13	Z13	X14	Y14	Z14	X15	Y15	Z15	X16	Y16	Z16	X17	Y17	Z17	X18	Y18	Z18	X19	Y19	Z19	X20	Y20	Z20	X21	Y21	Z21	X22	Y22	Z22	X23	Y23	Z23	X24	Y24	Z24	X25	Y25	Z25	X26	Y26	Z26	X27	Y27	Z27	X28	Y28	Z28	X29	Y29	Z29	X30	Y30	Z30	X31	Y31	Z31	X32	Y32	Z32	X33	Y33	Z33	X34	Y34	Z34	X35	Y35	Z35	X36	Y36	Z36	X37	Y37	Z37	X38	Y38	Z38	X39	Y39	Z39	X40	Y40	Z40	X41	Y41	Z41	X42	Y42	Z42	X43	Y43	Z43	X44	Y44	Z44	X45	Y45	Z45	X46	Y46	Z46	X47	Y47	Z47	X48	Y48	Z48	X49	Y49	Z49	
0	0.0000	485.165009	1571.108398	595.697815	458.406464	1597.609375	182.169220	390.221222	1618.665649	389.108948	554.469177	1562.680542	371.609924	491.643677	1313.889526	747.594421	627.404297	1090.537231	893.665771	434.565948	1302.640259	49.516983	566.291565	1065.848999	-126.022316	346.652527	1075.993042	394.175568	517.812317	1164.096313	177.902298	559.407654	1152.113525	567.731812	583.092102	1110.034668	207.146072	614.742432	1112.489380	522.373718	368.482513	1130.504883	449.175598	355.653625	1127.844116	345.997253	511.696014	960.803528	589.722046	448.294800	992.527466	175.018219	520.662170	833.241943	586.690796	540.272217	750.165588	561.048462	515.817139	668.458862	542.832947	574.117371	752.777466	548.497498	510.264160	562.664551	517.119690	504.511292	546.068542	397.377197	464.274872	413.932953	539.162720	478.313965	327.424683	525.054382	448.853394	245.212143	524.997925	505.087006	327.363647	496.023346	431.609009	108.841896	513.341125	462.890900	122.862938	425.888550	386.522766	80.337029	459.258179	667.330505	91.556465	518.877136	584.530090	51.541328	571.550171	609.695251	59.089390	458.290314	476.267395	859.191162	154.876328	495.399445	776.009094	168.175354	531.507080	775.577881	175.112915	468.503876	692.555298	183.483688	462.152100	550.722351	213.544952	475.937744	540.460388	339.678680	405.991516	117.610313	223.553864	436.810516	133.974609	297.575836	369.150665	68.660927	259.892487	592.798645	56.250660	291.955444	569.587769	55.269489	174.945129	424.425751	427.990845	192.599060	442.828217	344.107666	199.366333	416.230194	259.640900	202.411194	474.537018	344.382446	221.620499	660.232544	95.551369	243.882538	
1	0.0050	485.219360	1571.093872	595.666382	458.390289	1597.589355	182.148361	390.247864	1618.680176	389.090363	554.509094	1562.676514	371.557068	491.682678	1313.891479	747.579407	627.425110	1090.516724	893.598877	434.535095	1302.610474	49.544640	566.219238	1065.831543	-126.025322	346.650085	1075.996704	394.164886	517.795593	1164.095337	177.915787	559.375671	1152.134521	567.746643	583.107422	1110.051758	207.151794	614.735168	1112.493408	522.409363	368.480011	1130.517578	449.175323	355.662048	1127.828735	345.997711	511.705872	960.804382	589.726929	448.335236	992.524841	175.007614	520.660583	833.251465	586.697083	540.298279	750.198730	561.059204	515.846924	668.463684	542.838989	574.137268	752.765015	548.492981	510.116730	562.863647	517.163086	504.524963	546.061035	397.369141	464.330414	413.982239	539.186279	478.342529	327.418976	525.043884	448.845215	245.217468	525.004333	505.086426	327.300354	495.983307	431.616364	108.848206	513.334106	462.909210	122.853912	425.886536	386.546814	80.318237	459.266113	667.328186	91.562248	518.871643	584.482788	51.489193	571.551697	609.702942	59.098869	458.281097	476.370026	859.190125	154.870102	495.488739	776.008240	168.176422	531.580566	775.585938	175.099258	468.577118	692.580139	183.467316	462.196381	550.702759	213.533371	475.970093	540.457825	339.690033	406.015961	117.615311	223.556137	436.816315	133.979431	297.582214	369.154510	68.668732	259.885864	592.795471	56.261654	291.962097	569.601501	55.259098	174.943695	424.512878	428.027008	192.622498	442.860443	344.127899	199.381348	416.258118	259.609131	202.428101	474.602173	344.342041	221.665253	660.212891	95.551743	243.874756	
2	0.0100	485.291382	1571.085571	595.630676	458.405853	1597.581421	182.126190	390.266052	1618.656006	389.117767	554.531128	1562.663574	371.550385	491.721710	1313.886963	747.551697	627.450562	1090.476318	893.561401	434.494110	1302.594360	49.578144	566.163452	1065.806152	-126.030464	346.669586	1075.980225	394.152008	517.797668	1164.092407	177.916321	559.355896	1152.123413	567.767334	583.143494	1110.048096	207.152679	614.721069	1112.489990	522.426025	368.483582	1130.496826	449.149109	355.686554	1127.817871	345.976837	511.697418	960.805176	589.731812	448.388062	992.512695	174.992111	520.669983	833.243591	586.706726	540.300781	750.170044	561.058350	515.857239	668.460205	542.824402	574.155457	752.771423	548.507935	510.130432	562.860229	517.169006	504.602295	546.076904	397.372437	464.331818	413.969757	539.184265	478.353577	327.415039	525.050537	448.854218	245.219086	525.010681	505.121674	327.359894	496.020325	431.632721	108.855194	513.343445	462.874786	122.841438	425.890594	386.529114	80.350952	459.276398	667.311279	91.531593	518.869385	584.449768	51.538631	571.544556	609.701416	59.097492	458.295502	476.430908	859.188965	154.881546	495.571960	776.011597	168.184784	531.673889	775.590881	175.125412	468.657806	692.577881	183.477676	462.273682	550.712708	213.529343	476.076080	540.483459	339.692352	406.005524	117.620461	223.563416	436.831879	133.977173	297.572937	369.154633	68.664673	259.890839	592.796021	56.246063	291.961060	569.594055	55.256397	174.945084	424.540771	428.019012	192.611633	442.897644	344.127472	199.372177	416.761078	259.575256	202.752396	474.602234	344.325958	221.663254	660.224915	95.536034	243.884766	
3	0.0150	485.325745	1571.062988	595.590088	458.409698	1597.566040	182.127258	390.298737	1618.629761	389.074829	554.556152	1562.651978	371.517487	492.160400	1314.148804	747.524780	627.476440	1090.451294	893.530823	434.461243	1302.558716	49.613110	566.080811	1065.763672	-126.019913	346.655396	1075.976807	394.155426	517.807556	1164.072754	177.925598	558.896667	1152.030762	567.486206	583.192749	1110.049805	207.150040	614.852051	1112.451904	522.100098	368.459015	1130.493652	449.166809	355.687561	1127.784546	345.986023	511.693390	960.801636	589.740173	448.427155	992.512756	174.989624	520.659424	833.250549	586.712891	540.338684	750.192749	561.059387	515.863953	668.452820	542.836121	574.171753	752.771240	548.526672	510.358368	562.672546	517.125854	504.623932	546.035767	397.393890	464.367188	413.976349	539.179626	478.780975	327.873169	524.955566	448.902557	245.276917	525.014404	505.107758	327.291046	495.963165	431.374908	109.026344	513.361633	463.143433	123.042923	425.902710	386.528656	80.335861	459.256012	667.336609	91.571991	518.861145	591.004150	54.807030	573.534912	609.689026	59.080166	458.283112	476.573914	859.221375	154.870575	495.576630	776.928040	169.828293	531.784302	775.509705	175.519623	468.748657	692.574036	183.484909	462.315979	550.718384	213.545746	476.101013	540.477844	339.702087	406.015289	117.624962	223.551254	436.811127	133.963882	297.569946	369.155731	68.668686	259.893951	592.803528	56.259056	291.950623	569.583252	55.263557	174.958054	424.582947	428.032928	192.616211	442.948608	344.124878	199.390259	416.810669	259.582153	202.756851	474.587494	344.432190	221.599808	660.213623	95.548149	243.877563	
4	0.0200	485.377991	1571.051270	595.642456	458.311615	1597.267334	181.977051	390.299103	1618.613647	389.077423	554.636292	1562.458008	371.581543	492.240173	1314.051880	747.556641	627.578979	1090.371338	893.724670	434.420380	1302.599365	49.782280	566.042908	1065.737549	-125.863037	346.783691	1075.904053	394.095856	517.837097	1163.922119	177.887955	559.127563	1152.025635	567.798401	583.340942	1109.858887	207.309601	615.147766	1112.276855	522.445068	368.466705	1130.455322	449.113922	355.622833	1127.839722	346.000946	511.690796	960.744080	589.858459	448.523529	992.454407	175.266724	520.675720	833.179932	586.786682	540.315491	750.092407	561.187439	515.885742	668.389465	542.900940	574.195984	752.723633	548.664185	510.413116	562.643555	517.271179	504.901611	545.741272	397.546204	464.461426	413.838654	539.243652	479.091980	327.702240	525.206299	449.007599	245.094894	525.065063	505.261475	327.133453	496.131287	431.377716	108.751740	513.464722	463.332184	122.878365	425.927124	386.574463	80.309853	459.472809	667.433899	91.341019	519.041870	591.239014	54.602898	573.817383	609.793274	58.732292	458.307373	476.642517	859.231445	155.200821	495.570129	776.981262	169.716446	531.844727	775.567932	175.547424	468.769775	692.624939	183.887100	462.297760	550.438110	214.104965	476.254333	540.340210	339.869263	405.985535	117.467461	223.576248	436.956879	133.863297	297.636169	369.086517	68.618164	259.943329	592.923645	56.083382	291.988281	569.783569	55.026005	174.952209	424.658264	427.896576	192.787994	443.054352	343.796936	199.450836	416.893829	259.268250	202.968399	474.718384	344.020752	221.910431	660.164673	95.284874	243.915039	
